<svg width="50" height="50" viewBox="0 0 50 50" fill="none" xmlns="http://www.w3.org/2000/svg">
<path d="M2.08325 44.0833H10.4469V18.8833H2.08325V44.0833ZM48.0833 20.9833C48.0833 18.6733 46.2014 16.7833 43.9014 16.7833H30.7078L32.6942 7.18634L32.7569 6.51434C32.7569 5.65334 32.4014 4.85534 31.8369 4.28834L29.6205 2.08334L15.8623 15.9223C15.0887 16.6783 14.6287 17.7283 14.6287 18.8833V39.8833C14.6287 42.1933 16.5105 44.0833 18.8105 44.0833H37.6287C39.3642 44.0833 40.8487 43.0333 41.476 41.5213L47.7905 26.7163C47.9787 26.2333 48.0833 25.7293 48.0833 25.1833V20.9833Z" fill="#F8F8F8"/>
</svg>
