<svg width="50" height="50" viewBox="0 0 50 50" fill="none" xmlns="http://www.w3.org/2000/svg">
<path d="M31.356 6.25H12.5378C10.8023 6.25 9.3178 7.3 8.69052 8.812L2.37598 23.617C2.1878 24.1 2.08325 24.604 2.08325 25.15V29.35C2.08325 31.66 3.96507 33.55 6.26507 33.55H19.4587L17.4723 43.147L17.4096 43.819C17.4096 44.68 17.7651 45.478 18.3296 46.045L20.546 48.25L34.3251 34.411C35.0778 33.655 35.5378 32.605 35.5378 31.45V10.45C35.5378 8.14 33.656 6.25 31.356 6.25ZM39.7196 6.25V31.45H48.0833V6.25H39.7196Z" fill="#F8F8F8"/>
</svg>
