<svg width="32" height="32" viewBox="0 0 32 32" fill="none" xmlns="http://www.w3.org/2000/svg">
<path d="M16.3474 6.33001C16.2544 6.24099 16.1305 6.19131 16.0018 6.19131C15.873 6.19131 15.7492 6.24099 15.6562 6.33001L4.1499 17.3219C4.10104 17.3686 4.06216 17.4248 4.03563 17.487C4.00909 17.5492 3.99545 17.6161 3.99553 17.6838L3.99365 28C3.99365 28.5304 4.20437 29.0391 4.57944 29.4142C4.95451 29.7893 5.46322 30 5.99365 30H11.9999C12.2651 30 12.5195 29.8947 12.707 29.7071C12.8945 29.5196 12.9999 29.2652 12.9999 29V20.5C12.9999 20.3674 13.0526 20.2402 13.1463 20.1465C13.2401 20.0527 13.3673 20 13.4999 20H18.4999C18.6325 20 18.7597 20.0527 18.8535 20.1465C18.9472 20.2402 18.9999 20.3674 18.9999 20.5V29C18.9999 29.2652 19.1053 29.5196 19.2928 29.7071C19.4803 29.8947 19.7347 30 19.9999 30H26.0037C26.5341 30 27.0428 29.7893 27.4179 29.4142C27.7929 29.0391 28.0037 28.5304 28.0037 28V17.6838C28.0037 17.6161 27.9901 17.5492 27.9636 17.487C27.937 17.4248 27.8981 17.3686 27.8493 17.3219L16.3474 6.33001Z" fill="#F8F8F8"/>
<path d="M30.6819 15.2594L26.0069 10.7869V4C26.0069 3.73478 25.9015 3.48043 25.714 3.29289C25.5265 3.10536 25.2721 3 25.0069 3H22.0069C21.7417 3 21.4873 3.10536 21.2998 3.29289C21.1123 3.48043 21.0069 3.73478 21.0069 4V6L17.3869 2.53875C17.0481 2.19625 16.5444 2 16 2C15.4575 2 14.955 2.19625 14.6163 2.53938L1.32252 15.2581C0.933774 15.6331 0.885024 16.25 1.23877 16.6563C1.32761 16.7588 1.43637 16.8422 1.55846 16.9014C1.68055 16.9605 1.8134 16.9942 1.94892 17.0004C2.08445 17.0066 2.21982 16.9852 2.3468 16.9374C2.47378 16.8896 2.5897 16.8165 2.68752 16.7225L15.6563 4.33C15.7493 4.24099 15.8731 4.19131 16.0019 4.19131C16.1307 4.19131 16.2545 4.24099 16.3475 4.33L29.3175 16.7225C29.5086 16.9057 29.7645 17.0057 30.0291 17.0006C30.2938 16.9954 30.5456 16.8855 30.7294 16.695C31.1131 16.2975 31.0813 15.6413 30.6819 15.2594Z" fill="#F8F8F8"/>
</svg>
