<svg width="32" height="32" viewBox="0 0 32 32" fill="none" xmlns="http://www.w3.org/2000/svg">
<path d="M19.0019 32H12.9991C12.623 32.0001 12.2582 31.8754 11.9651 31.6466C11.6721 31.4179 11.4684 31.0989 11.3879 30.7424L10.7168 27.728C9.82139 27.3474 8.97239 26.8714 8.18538 26.3088L5.15597 27.2448C4.79739 27.3557 4.41049 27.3443 4.05951 27.2125C3.70853 27.0807 3.4146 26.8363 3.22652 26.52L0.218542 21.4784C0.032432 21.1618 -0.0374289 20.7933 0.0203886 20.4332C0.0782061 20.0731 0.260279 19.7427 0.536819 19.496L2.8868 17.416C2.77993 16.4738 2.77993 15.523 2.8868 14.5808L0.536819 12.5056C0.259887 12.2588 0.0775668 11.9281 0.0197399 11.5677C-0.0380871 11.2072 0.0320098 10.8384 0.218542 10.5216L3.21992 5.4768C3.408 5.1605 3.70194 4.91615 4.05292 4.7843C4.40389 4.65246 4.7908 4.64106 5.14937 4.752L8.17879 5.688C8.58117 5.4 9.00004 5.1312 9.43211 4.888C9.84933 4.6608 10.2781 4.4544 10.7168 4.2704L11.3896 1.2592C11.4697 0.902716 11.673 0.5835 11.9657 0.354478C12.2584 0.125456 12.6231 0.000383946 12.9991 0H19.0019C19.3779 0.000383946 19.7426 0.125456 20.0353 0.354478C20.328 0.5835 20.5313 0.902716 20.6114 1.2592L21.2908 4.272C21.7526 4.4704 22.2045 4.6928 22.6415 4.9408C23.0488 5.1696 23.4429 5.4208 23.8222 5.6912L26.8533 4.7552C27.2116 4.64467 27.5982 4.65627 27.9488 4.7881C28.2994 4.91992 28.5931 5.16405 28.7811 5.48L31.7825 10.5248C32.1651 11.176 32.0331 12 31.4642 12.5072L29.1142 14.5872C29.2211 15.5294 29.2211 16.4802 29.1142 17.4224L31.4642 19.5024C32.0331 20.0112 32.1651 20.8336 31.7825 21.4848L28.7811 26.5296C28.593 26.8459 28.2991 27.0903 27.9481 27.2221C27.5971 27.3539 27.2102 27.3653 26.8516 27.2544L23.8222 26.3184C23.0358 26.8806 22.1873 27.356 21.2925 27.736L20.6114 30.7424C20.531 31.0986 20.3276 31.4174 20.0349 31.6461C19.7422 31.8749 19.3777 31.9997 19.0019 32ZM15.9939 9.6C14.2444 9.6 12.5666 10.2743 11.3295 11.4745C10.0925 12.6747 9.39748 14.3026 9.39748 16C9.39748 17.6974 10.0925 19.3253 11.3295 20.5255C12.5666 21.7257 14.2444 22.4 15.9939 22.4C17.7434 22.4 19.4212 21.7257 20.6583 20.5255C21.8954 19.3253 22.5903 17.6974 22.5903 16C22.5903 14.3026 21.8954 12.6747 20.6583 11.4745C19.4212 10.2743 17.7434 9.6 15.9939 9.6Z" fill="#F8F8F8"/>
</svg>
