<svg width="50" height="50" viewBox="0 0 50 50" fill="none" xmlns="http://www.w3.org/2000/svg">
<g clip-path="url(#clip0_2_36)">
<path d="M29.7197 12.8467L28.4087 19.59C28.1327 20.9667 28.5007 22.39 29.3747 23.4633C30.2487 24.5367 31.5367 25.1667 32.9167 25.1667H45.5667V27.6867L39.6557 41.5H21.0487C20.8432 41.4941 20.6476 41.4087 20.5022 41.2611C20.3568 41.1136 20.2725 40.9152 20.2667 40.7067V22.4133L29.7197 12.8467ZM31.7667 4.16667L17.0237 19.1233C16.1497 20.01 15.6667 21.2 15.6667 22.4367V40.7067C15.6667 43.7167 18.0817 46.1667 21.0487 46.1667H39.6787C41.3117 46.1667 42.8067 45.3033 43.6347 43.9033L49.7757 29.5533C50.0287 28.97 50.1667 28.34 50.1667 27.6867V25.1667C50.1667 22.6 48.0967 20.5 45.5667 20.5H32.9167L35.0327 9.65C35.1477 9.13667 35.0787 8.57667 34.8487 8.11C34.3257 7.05909 33.6427 6.09841 32.8247 5.26333L31.7667 4.16667ZM8.76675 20.5H4.16675V46.1667H8.76675C10.0317 46.1667 11.0667 45.1167 11.0667 43.8333V22.8333C11.0667 21.55 10.0317 20.5 8.76675 20.5Z" fill="#F8F8F8"/>
</g>
<defs>
<clipPath id="clip0_2_36">
<rect width="50" height="50" fill="white"/>
</clipPath>
</defs>
</svg>
