<svg width="52" height="53" viewBox="0 0 52 53" fill="none" xmlns="http://www.w3.org/2000/svg">
<path d="M24.7803 42.1533L26.0913 35.41C26.3673 34.0333 25.9993 32.61 25.1253 31.5367C24.2513 30.4633 22.9633 29.8333 21.5833 29.8333H8.93325V27.3133L14.8443 13.5H33.4513C33.8653 13.5 34.2333 13.8733 34.2333 14.2933V32.5867L24.7803 42.1533ZM22.7333 50.8333L37.4762 35.8767C38.3503 34.99 38.8333 33.8 38.8333 32.5633V14.2933C38.8333 11.2833 36.4183 8.83334 33.4513 8.83334H14.8213C13.1883 8.83334 11.6933 9.69667 10.8653 11.0967L4.72425 25.4467C4.47125 26.03 4.33325 26.66 4.33325 27.3133V29.8333C4.33325 32.4 6.40325 34.5 8.93325 34.5H21.5833L19.4673 45.35C19.3523 45.8633 19.4213 46.4233 19.6513 46.89C20.1803 47.94 20.8473 48.8967 21.6753 49.7367L22.7333 50.8333ZM45.7332 34.5H50.3333V8.83334H45.7332C44.4683 8.83334 43.4333 9.88334 43.4333 11.1667V32.1667C43.4333 33.45 44.4683 34.5 45.7332 34.5Z" fill="#F8F8F8"/>
</svg>
